<svg width="100" height="75.826" viewBox="0 0 26.458 20.062" xml:space="preserve" xmlns="http://www.w3.org/2000/svg"><g style="display:inline"><path style="display:inline;fill:currentColor;fill-opacity:1;stroke:none;stroke-width:.0427004px;stroke-linecap:butt;stroke-linejoin:miter;stroke-opacity:1" d="M21.212 3.198c-.712.001-1.38.182-1.741.505-1.046.934-1.257 1.795-1.472 2.154-.216.359-1.022 1.828-2.06 2.441-.614.363-1.385.802-1.688 1.078-.188.17-2.722 1.913-3.081 2.452-.36.538-1.18 1.008-1.802 1.497-.19.149-.532.331-.862.574-.225.167-.298.644-.574.826-.442.292-1.567 1.432-1.603 1.935-.646.395-5.837 2.619-5.981 3.05-.144.43-.598 1.85-.167 2.101 1.006.703 2.571-1.588 6.638-3.208.898-.216 3.385-.984 5.001-1.056.172.64.317.792.46.828.144.036 1.102 1.901 1.325 2.562.08.237.275.184.194.33-.063.114-.114.177-.114.355-.482.076-.622.127-.749.063-.127-.063-.228-.266-.457-.292-.228-.025-.495-.304-.761.483.406-.152.442-.357.672-.127.197.146-.251.19.026.406.304.19.964.038 1.104.05.14.014.063-.113.28-.113a1 1 0 0 1 .317.038s-.026-.076.089-.09c.114-.012.406.039.47.039.063 0 .85.05.85.05s.038.395-.318.56c-.165.075-.203-.102-.355-.102-.152 0-.241-.102-.317-.038-.077.063-.229-.216-.496-.077-.266.14-.456.077-.533.546.343-.342.445-.368.648-.24.203.126-.163.31.254.43.33.097.38-.126.38-.126s.292.101.648 0c.076.114.546-.09.52-.178-.025-.089.216.305.597.076.203-.127.022.094.368.051.203-.025.19.127.457.127.343 0 .457.165.736.076.28-.089.305.025.42.013.113-.013.164-.292.164-.292s.508-.013.711.28c.05-.191-.089-.382-.203-.47-.114-.09.267-.051.267-.051s-.09-.204.063-.19c.152.012.457.088.635.291-.14-.495-.509-.77-1.168-.71-.28.025-.369-.234-.571-.255-.179-.018-.356.229-.622.242-.267.012-.42.177-.534.152-.114-.025-.47.114-.47.114s-.43-.127-.545-.343c.406-.292.406-.228.546-.14.14.09.355.09.546.242.19.152-.203-.343-.242-.406-.038-.064.115-.203.115-.292.215.025.57-.013.761.152-.14-.495-1.104-.558-1.32-.33-.216.229-.178-.076-.178-.076s-.31-.321-.698-.114c-.552-.962-.47-1.105-.533-1.232-.074-.148-.28-.444-.38-1.002-.013-.068.164-.292.152-.356-.013-.063.47-.33.482-.368.013-.038.8-.203.927-.228.127-.026.089-.153.165-.153.076 0 .533-.254.533-.254s.076-.279.241-.342c.165-.064.812-.483.977-.711.165-.229.978-.927 1.118-1.143.14-.216 1.04-1.244 1.091-1.46.05-.215 1.358-2.716 1.587-4.24.228-1.522.216-2.271.774-2.88.227-.248.775-.965.965-1.08.19-.114.305-.063.546-.457.241-.393 2.018-.94 2.018-.94l.003-.107s-.359-.74-3.016-.13c-.53-.53-1.399-.768-2.213-.77h-.017zM13.444 18.08s-.076.254.013.292c.088.038.215.318.215.318s.14.304.19.304c.052 0 .14-.012.14-.012.039.012.622 1.053.66 1.13l.572 1.13s-.559.19-.762.139c-.203-.051-.292-.571-.33-.648-.038-.076-.228-.47-.254-.52-.025-.05-.343-.8-.38-.838-.039-.038-.369-.85-.381-.914-.013-.063-.026-.28.025-.317.05-.038.292-.064.292-.064zm2.652 3.11c.123 0 .191.077.191.077s-.101.025-.165.05c-.063.026-.177.127-.177.127l-.09-.127s-.025-.063.153-.114a.333.333 0 0 1 .088-.013zm2.423.962c.124 0 .155.064.14.095-.019.036-.324.09-.369.09-.045 0-.045-.027-.036-.108 0 0 .018-.045.198-.072a.476.476 0 0 1 .06-.005h.007zm.77.084c.05.001.105.011.105.011s-.009.054-.072.099c-.062.045-.188.009-.206-.045 0 0 .072-.054.126-.063a.244.244 0 0 1 .046-.002zm-.724.44h.02c.186.005.378.074.378.074s-.053.08-.098.08c-.045 0-.476 0-.52-.026-.046-.027-.046-.081-.046-.081s0-.027.207-.045a.638.638 0 0 1 .059-.003z" transform="translate(0 -3.198)"/></g></svg>
