<svg width="100" height="100" viewBox="0 0 26.458 26.458" xmlns="http://www.w3.org/2000/svg"><g style="font-size:10.5833px;line-height:1.25;font-family:Marion;-inkscape-font-specification:Marion;stroke-width:.264583" aria-label="bg"><circle style="fill:#eee;stroke-width:.255329;fill-opacity:1;stroke:none;stroke-opacity:1" cx="13.229" cy="13.229" r="13.04"/><path style="font-weight:700;font-family:'Victor Mono';-inkscape-font-specification:'Victor Mono Bold'" d="M10.352 16.221c1.732 0 2.32-.894 2.32-3.098 0-2.213-.588-3.117-2.32-3.117-.5 0-.885.087-1.212.212V8.39H8.034v6.812c.587.75 1.183 1.02 2.318 1.02zm0-1.02c-.635 0-.904-.076-1.212-.355v-2.454c0-1.116.24-1.366 1.212-1.366.934 0 1.213.49 1.213 2.097 0 1.597-.28 2.079-1.213 2.079z" transform="matrix(1.39609 0 0 1.39609 -5.24 -5.24)"/><path style="font-style:italic;font-weight:200;font-family:'Victor Mono';-inkscape-font-specification:'Victor Mono Ultra-Light Italic'" d="M14.23 18.069c1.193 0 2.3-.54 2.761-1.357.24 0 .606.01.933-.077l.068-.356c-.308.077-.54.067-.818.067.212-.336 1.25-5.05 1.25-5.532 0-.654-.596-.808-1.366-.808-1.414 0-3.252 2.01-3.261 3.974 0 1 .635 1.664 1.587 1.664.683 0 1.646-.26 1.77-.635-.067.385-.201 1-.423 1.337-2.174 0-3.502.414-3.502 1.078 0 .385.404.645 1 .645zm1.135-2.8c-.693 0-1.154-.52-1.154-1.28.01-1.732 1.683-3.608 2.867-3.608.635 0 .943-.01.933.472.01.211-.221 1.24-.635 3.127-.24 1.125-.876 1.289-2.01 1.289zm-1.039 2.424c-.414 0-.683-.096-.683-.26-.01-.403 1.145-.682 2.925-.721-.491.587-1.395.981-2.242.981z" transform="matrix(1.39609 0 0 1.39609 -5.24 -5.24)"/></g></svg>
