<svg xmlns="http://www.w3.org/2000/svg" xml:space="preserve" width="100.1" height="50.685" viewBox="0 0 26.485 13.41"><path d="M11.945 5.926c-.32-.683-2.6-2.575-2.987-2.895S7.272 1.595 6.52 1.208C5.767.82 3.84.512 3.556.706c-.889 3.51.41 5.654.98 6.543.617.408 1.983.433 1.983.433-3.1.98-1.003 4.012.046 4.49s2.257.616 3.282.16c.616-.684 1.254-2.12 1.756-3.397-.297 1.573-.502 2.348-.456 2.44.045.09.104.012.12-.028l.016-.04s.242-.661.274-.927.41-2.45.467-2.506c.057-.057.073-.145.121-.145.049 0 .057.08.049.29s-.121 2.151-.049 2.691c.073.54.186 1.725.46 1.75.274.023.669-1.25.677-2.314s.056-2.232.088-2.256.202.483.226.636.193 1.644.274 1.846c.08.201.266 1.032.346 1.032.081 0 .105-.009.113-.057s-.29-.878-.346-1.241c-.057-.363-.153-1.41-.178-1.531s-.112-.315-.08-.379c.032-.065.322.71.443 1.064s.685 2.055.87 2.401c.186.347.774 1.096 1.983.992s2.313-.25 3.103-1.572c.886-1.29.516-1.872.41-2.023-.523-.75-1.563-1.281-1.643-1.313.5-.008 1.285.113 1.58-.008.507-.21 1.627-1.604 1.877-3.41.25-1.805.008-3.263-.17-3.425-.176-.16-1.917-.129-3.432.726-1.515.854-1.822 1.483-2.144 1.676s-1.225.822-1.531 1.144c-.307.323-1.306 1.193-1.515 1.548-.274-.113-.226-.028-.23-.069-.004-.04.012-.237-.004-.278-.016-.04-.048-.02-.077-.04s0-.161-.008-.21-.088-.084-.088-.084.447-.46.7-.568c.255-.11.666-.415.742-.464.077-.048.918-.65 1.123-.932.206-.282.62-.969.615-1.166-.004-.198.071-.28.027-.287-.044-.008-.072.063-.116.3-.033.159-.047.27-.133.408-.318.508-.465.81-1.323 1.419a8 8 0 0 1-.886.552c-.133.065-.753.528-.794.6-.06-.088-.064-.088-.08-.096s.016-.197-.004-.262c-.02-.064-.016-.068-.08-.036-.065.032-.118.222-.114.25s-.048.04-.084.024.02-.238-.029-.262c-.048-.024-.12-.036-.12.008s-.037.161-.037.185c0 .025.004.057-.016.077s-.04.036-.072.024c-.033-.012-.193-.137-.286-.205-.187-.138-1.102-.755-1.467-1.06-.531-.443-.901-.76-1.145-1.245-.19-.379-.254-.971-.286-.975s-.052.085-.046.129c.04.266.12.627.195.778.327.654.64.862.877 1.111.099.103 1.275.967 1.372 1.04s.669.508.705.532-.085.14-.08.217c.003.077.011.117.032.142.02.024-.004-.009-.065.032-.06.04-.088.084-.064.117.024.032-.004.032-.004.064s.028.02-.029.085c-.056.064.009.092-.124.084s-.108-.009-.108-.009" style="display:inline;fill:#000;stroke-width:.264585"/></svg>
