<svg width="100.1" height="50.685" viewBox="0 0 26.485 13.41" xml:space="preserve" xmlns="http://www.w3.org/2000/svg"><path style="display:inline;fill:currentColor;fill-opacity:1;stroke:none;stroke-width:.0736485;stroke-linecap:butt;stroke-linejoin:miter;stroke-dasharray:none;stroke-opacity:1" d="M16.468 4.106c.64-.59.815-1.16.783-1.6 0 0 .586-1.051.371-1.174-.214-.123-.858.323-.925.32-.068-.005-.197-.18-.343-.229-.145-.047-.332-.063-.407-.085-.076-.022-.278-.805-.482-.813h-.006c-.135.012-.308.522-.334.603-.051.031-.034.224-.055.226-.021.003-.076.261-.101.377-.083.07-.377.663-.445.93l-.403.261c-2.24 2.037-6.411 1.5-7.63.064C5.096 1.338 6.619.31 7.008.272c.76-.077.807.325.585.683.521-.539.129-.826-.474-.82-.597.008-1.398.304-1.72.929-.685 1.334.376 2.46.898 3.04.44.37.74.949 2.546 1.25-1.528.092-1.875 0-2.5-.186-.625-.185-2.063-.352-2.619.204-.555.555-.605 1.322-.329 1.637.248.282.632.406.632.406s.51.347 1.043.36c-.518-.229-.595-.284-.709-.37 1.206-.405.732-1.15.338-1.241-.394-.091-.915.078-.909.664-.254-.856.356-1.107.746-1.174.957-.162 3.65 1.466 5.063 1.096-.996.903-1.075.956-2.04 1.27-.752.245-1.848.965-1.681 2.693-.804.77-1.12.536-1.665.647.698.156 1.417-.058 1.822-.355 1.334 1.95 3.226-1.01.87-1.113.485-1.316 2.75-.706 3.74-1.82.11 1.76 1.283 2.967 4.316 3.384-.584 2.032-2.457-.346-4.145-1.224-1.688-.877-2.731.92-1.734 2.21-.242-1.265.139-1.736.525-1.856.966-.298 2.914 2.438 4.26 2.663 1.958.327 2.548-1.297 2.567-2.002 1.047.235 1.6 1.006 2.73.555.689.267 1.475-.347 2.113-.22.818.162.905.622 1.585.736-.224-.217-1.1-1.115-1.563-1.106-.462.009-1.342.115-1.342.115s.316-.53.325-1.264c.725-.027 1.234-.214 1.538-.09-.769.153-.554.77-.16.815.393.044.465-.01.715-.18.188.385.76.403.903.421-.536-.224-.796-.518-.813-.635.152-.384-.322-.742-.59-.859 0 0-.967-.26-1.745.036-.68-.689-1.762-.447-1.94.376-.35.126-.626.225-.922.205-.349-.5-1.055-1.046-1.135-2.36 0 0 .582-.055 1.023-.08.44-.025.88.924 1.093 1.051.212.127 1.008.61 1.966.11-1.263.127-1.56-.254-1.763-.508-.203-.254-.483-1.17-1.313-1.314-.831-.144-.772.034-1.094-.076 0 0 .178-2.017.314-2.356zM4.435 6.34a.2.2 0 0 1 .045.004c.468.098.399.897-.34.76-.247-.047-.01-.756.295-.764zm9.419.928c.01 2.02.66 2.962.66 2.962-.681-.052-1.508-.471-1.728-.806 1.089-.335 1.026-2.03 1.068-2.156zm8.077 2.944c.122-.002.23.036.234.123.013.24-.624.319-.586.052.016-.107.196-.174.352-.175zm-2.362.028c-.097.297-.337.497-.732.388 0 0 .408-.22.732-.388zm-12.594.081h.029c.255.014.56.198.527.453-.052.409-1.016.42-.848-.272.031-.127.151-.181.292-.18z"/></svg>
