<svg width="100.1" height="50.685" viewBox="0 0 26.485 13.41" xml:space="preserve" xmlns="http://www.w3.org/2000/svg"><path style="fill:currentColor;fill-opacity:1;stroke:none;stroke-width:.0708499;stroke-linecap:butt;stroke-linejoin:miter;stroke-dasharray:none;stroke-opacity:1" d="M13.034 8.786c.703.229 1.315.382 1.667 1.146.351.765-.76 1.458-1.132 1.85-.58.612.064.901.765 1.178.807.319 1.208.856 1.36-.642.154-1.499.72-2.523 1.178-2.57.612-.06 1.055 1.056 1.789 1.071.734.016 1.01-.58 1.147-.871.137-.29.413-1.728-.153-2.11-.566-.383-.81.03-1.33.076s-.979-.199-.81-.703c.167-.505 1.161-2.064 1.345-2.493.183-.428.428-1.223.428-1.223s-1.04-.097-1.942-.107c-.719-.008-1.019-.239-1.1-.558-.07-.268.794-1.047.901-1.567.107-.52-.367-.94-.948-1.109-.58-.168-1.085-.084-1.33.191-.245.276-.107 1.27-.138 1.483-.03.215 0 .689-.78.505-.78-.183-3.318-1.468-3.318-1.468s-.34 1.055-.489 2.14c-.13.949-.122 1.086-.49 1.148-.366.06-.878-.413-1.314-1.01-.43-.589-.872-.382-1.101-.137-.23.244-.696 1.04-.742 1.345-.045.306.077 1.178.383 1.33.305.154 1.705-.03 1.919.184.214.214.229 1.101-1.514 4.266 2.125 1.147 2.997 1.346 3.425 1.147.428-.199-.163-1.995.107-2.355.459-.611 1.576-.346 2.217-.137z"/></svg>
