<svg width="100.1" height="50.685" viewBox="0 0 26.485 13.41" xml:space="preserve" xmlns="http://www.w3.org/2000/svg"><path style="display:inline;fill:currentColor;fill-opacity:1;stroke:none;stroke-width:.0664101;stroke-linecap:butt;stroke-linejoin:miter;stroke-dasharray:none;stroke-opacity:1" d="M13.301.098s-.882 0-.922.01c-.04.01-.477.567-.527.587l-2.18.852s-.07.01-.12.03a.745.745 0 0 0-.224.243c-.03.071-.365 1.693-.506 2.645-.142.953-.426 3.588-.456 3.993-.03.406-.254 3.852-.254 3.852s.547.07.79.06c.244-.01.599-.02.64-.05.04-.03.344-3.081.435-4.044.091-.963.263-2.655.304-2.767.05.619.101 1.45.162 1.642.06.193.112.831.091 1.095-.02.263-.01.324-.02.405-.01.081-.06.264-.06.476 0 .213.04.254.04.355 0 .101-.122 1.865-.152 2.371-.03.507-.091.963-.05.994.04.03-.062.142.86.304.923.162 1.085.101 1.277-.03.244 0 .538-.021.7-.021.08.284.466.213.82.193.355-.02 1.561-.112 1.886-.213.324-.102.294-.132.344-.233.05-.102-.06-1.49-.07-1.693-.01-.202-.062-1.267-.072-1.419l-.02-.294s.05-.08.03-.283c-.02-.203-.04-.436-.06-.517-.02-.081-.01-.7-.01-.851 0-.152.233-1.967.233-2.28.179 1.152.172 1.347.253 2.046.081.7.142 1.683.182 1.977.04.294.051.506.152 1.388.102.882.152 1.389.152 1.389s.294.05.7.03c.405-.02.689-.01.72-.06.03-.052-.102-1.703-.112-2.058-.01-.355-.071-1.5-.122-1.784-.05-.284-.243-2.462-.314-2.929-.07-.466-.314-2.391-.405-2.655-.092-.263-.183-.912-.254-1.013-.07-.102-.07-.152-.263-.264-.193-.111-2.025-.77-2.133-.82-.107-.05-.48-.587-.551-.616C14.143.112 13.3.098 13.3.098Z"/></svg>
